<svg width="433" height="561" viewBox="0 0 433 561" fill="none" xmlns="http://www.w3.org/2000/svg">
<path d="M13.6388 545.169C-10.9651 530.005 -27.3448 503.122 -40.6906 477.384C-46.5778 464.231 -49.8713 450.604 -51.2612 436.746C-50.9453 436.29 -50.7801 435.702 -50.9312 434.993C-51.1793 433.777 -51.4602 432.589 -51.7098 431.38C-52.6904 416.498 -51.5727 401.392 -49.1379 386.306C-43.9278 354.156 -33.8515 320.678 -20.7205 290.892C7.14158 227.67 50.223 173.143 111.784 140.126C165.749 111.181 243.783 101.015 299.323 130.811C351.629 158.867 384.084 213.252 426.439 253.18C417.189 258.691 406.55 264.369 395.691 261.86C388.503 260.198 382.656 254.419 377.635 248.504C377.754 248.255 377.849 247.972 377.88 247.636C378.348 240.845 368.788 232.121 364.981 227.521C357.123 218.016 348.891 208.416 339.824 200.038C308.26 170.901 268.455 148.022 226.213 139.413C223.129 138.788 221.516 143.467 224.638 144.102C263.197 151.959 297.008 171.508 327.388 195.985C336.672 203.479 344.659 211.857 352.595 220.735C356.673 225.301 360.637 229.973 364.508 234.721C365.598 236.077 367.84 238.356 369.727 240.751C369.474 240.787 369.229 240.853 368.987 240.971C365.098 242.908 358.529 239.16 354.672 237.856C353.279 237.398 352.132 238.204 351.549 239.424C348.632 245.462 348.217 252.654 347.155 259.185C346.361 264.015 345.404 269.786 342.055 273.626C339.832 276.161 337.06 275.235 334.287 273.686L334.243 273.6C304.887 209.182 235.752 153.076 162.35 157.802C31.1449 166.256 -43.0106 313.368 -46.9696 430.896C-47.0768 434.072 -42.1392 434.418 -42.0334 431.23C-40.9624 399.232 -34.5367 364.934 -23.1218 331.902C-22.64 328.613 -22.0412 325.337 -21.2017 322.089C-20.6468 319.913 -19.4263 318.536 -17.9477 317.783C-16.5041 314.115 -14.9734 310.478 -13.3932 306.856C-12.142 303.197 -10.7899 299.554 -9.34214 295.941C-8.75965 294.497 -7.8811 293.439 -6.85531 292.676C28.0783 221.468 88.1825 164.17 170.131 162.46C235.391 161.102 297.777 210.944 326.906 269.535C326.825 269.627 326.752 269.662 326.686 269.762C326.767 269.818 326.841 269.871 326.924 269.919C326.924 269.919 326.914 269.922 326.905 269.924C326.858 269.914 326.823 269.946 326.776 269.936C327.725 271.703 328.458 273.586 329.018 275.516C329.297 275.616 329.6 275.689 329.875 275.811C333.213 283.199 336.056 290.699 338.259 298.245C345.002 321.264 345.247 346.687 333.423 368.123C319.94 392.601 293.217 404.992 267.037 411.426C275.806 401.05 286.362 388.913 280.555 375.348C277.318 367.786 272.717 365.138 267.484 364.873C284.896 354.646 296.878 338.375 300.109 316.231C304.8 284.067 288.54 251.264 268.191 227.577C245.425 201.082 212.643 183.789 178.309 178.449C143 172.948 111.225 184.585 83.6042 205.979C81.0864 207.929 84.3889 211.6 86.8974 209.661C113.082 189.381 141.338 179.515 174.653 182.945C206.951 186.275 237.19 202.999 259.811 225.797C281.049 247.199 295.794 276.879 295.783 307.382C295.775 338.463 275.077 360.08 246.695 368.414C269.802 330.363 250.467 288.864 218.148 261.109C205.545 250.288 191.014 243.256 175.918 237.098C169.19 233.697 161.964 230.932 154.518 228.804C150.607 227.359 146.652 225.999 142.676 224.74C132.334 223.383 121.968 222.513 111.523 222.339C111.329 222.642 111.217 222.975 111.199 223.302C105.297 223.464 99.6499 224.022 94.4338 224.967C53.2495 232.407 22.3145 260.633 5.0542 296.226C5.41851 297.523 5.37528 299.019 4.7087 300.666C-0.957358 314.786 -5.26831 329.007 -6.47659 344.017C-6.47973 344.051 -6.4698 344.081 -6.46671 344.119C-6.64567 346.85 -6.68187 349.577 -6.84361 352.306C-6.76668 352.293 -6.69049 352.309 -6.60518 352.281C-7.0217 353.586 -7.36691 354.935 -7.67101 356.313C-34.9243 386.458 -38.5493 439.576 -18.8334 473.492C-17.2464 476.23 -12.8047 474.053 -14.4056 471.296C-31.5716 441.779 -29.8846 399.96 -11.6474 370.391C-11.4651 369.52 -11.1233 368.689 -10.5662 367.949C-9.27013 366.225 -7.91756 364.543 -6.52268 362.887C-6.48295 362.833 -6.44464 362.767 -6.39661 362.717C-6.3904 362.721 -6.3868 362.714 -6.3868 362.714C-6.18178 362.479 -6.00989 362.224 -5.80224 361.998C-5.01065 360.642 -4.29977 359.219 -3.36983 357.967C-2.34798 356.613 -1.00634 355.591 0.49791 355.052C22.8536 333.476 62.4445 325.869 82.5908 352.983C63.1749 357.325 48.3794 369.036 43.1567 389.176C42.8803 390.219 43.142 391.44 44.1431 392.026C55.2273 398.555 68.2443 408.343 80.2136 409.68C61.5223 414.786 41.7002 410.083 22.833 414.551C3.74332 419.065 -3.12451 436.983 -5.77725 454.557C-6.26133 457.725 -1.3181 458.013 -0.847904 454.898C1.00685 442.653 4.30512 430.396 15.0902 423.092C22.7197 417.933 33.1351 417.579 41.9773 417.362C57.0775 416.998 71.8361 418.029 86.3255 412.891C86.4414 412.853 86.4795 412.772 86.5866 412.721C88.5966 412.397 90.5708 411.833 92.5429 411.374C88.6578 418.868 82.6494 424.358 73.1818 428.361C62.2725 432.967 51.8291 437.029 42.2235 444.132C41.4027 444.731 41.1111 446.222 41.6532 447.076C44.7569 452.015 50.0558 460.164 42.6151 463.618C36.8263 466.306 29.1049 465.821 22.9015 466.041C11.7352 466.456 -3.58629 465.783 -11.1661 475.654C-20.447 487.706 -6.29248 509.072 1.97281 517.283C14.4527 529.681 37.1748 545.832 56.2949 541.223C61.2311 541.93 66.4111 540.817 71.2866 538.697C74.2781 537.582 77.4042 535.889 80.6238 533.394C80.6518 533.374 80.6476 533.338 80.6853 533.316C90.2563 528.205 93.6792 518.569 93.5385 508.197C93.2671 488.532 73.7736 473.036 56.0806 486.01C48.4858 491.587 43.0698 499.848 43.6214 509.523C44.0727 517.663 51.7968 526.635 60.1012 527.531C71.6816 528.775 90.2016 510.169 75.4341 502.05C72.662 500.527 69.9158 504.642 72.7189 506.183C78.5566 509.39 73.9473 516.24 70.6082 519.436C64.5023 525.261 56.9952 522.309 51.8746 516.975C39.7399 504.329 58.2524 486.539 71.0253 485.929C87.3122 485.155 90.5852 508.309 86.9102 519.439C83.5379 529.676 70.8938 533.953 59.3344 534.719C55.0664 533.333 51.1093 530.739 48.0657 526.864C42.9171 520.324 41.0013 511.994 42.4436 504.162C42.3107 501.129 42.4237 497.929 42.9068 494.777C46.5217 484.942 54.7585 478.301 65.7142 477.983C66.2891 477.958 66.837 478.009 67.4073 478.026C68.4474 478.463 69.3984 479.045 70.3998 479.554C74.9229 479.824 79.2412 481.195 82.6485 483.646C82.7278 483.451 82.9046 483.293 82.9249 483.081C92.6515 489.957 97.8608 502.763 97.2621 515.1C95.161 557.953 42.8019 563.129 13.6388 545.169ZM-73.9971 228.813C-73.3746 229.811 -71.8695 230.481 -70.8125 229.77C-53.8113 218.382 -49.3761 196.482 -46.0342 177.615C-43.9825 166.048 -42.8969 153.973 -41.405 141.97C-42.2222 126.12 -42.0968 108.083 -33.6917 95.7496C-34.2142 95.8461 -34.7101 96.0353 -35.0912 96.4706C-32.3035 91.0298 -28.7853 85.8642 -24.4245 80.9086C-17.1039 72.5967 -8.68397 65.337 -0.856282 57.5197C-2.60366 79.2321 -0.414347 100.914 11.6611 119.739C11.7414 119.882 11.8622 119.941 11.9761 120.059C11.2326 121.419 10.485 122.776 9.81657 124.187C1.48174 142.063 -3.56294 162.253 -7.46097 181.543C-15.1877 219.669 -16.6614 258.952 -28.7793 296.149C-29.0219 296.899 -28.9082 297.553 -28.6042 298.074C-32.6603 308.329 -36.3582 318.738 -39.7258 329.341C-47.2729 353.071 -53.6028 377.358 -56.1011 402.131C-83.6718 350.71 -75.3058 285.798 -73.9971 228.813ZM-87.6015 315.419C-89.7237 302.47 -88.4529 288.999 -87.3988 276.007C-85.5249 253.071 -84.6885 232.74 -92.636 210.775C-99.1599 192.745 -108.009 176.646 -120.039 162.547C-97.736 173.937 -72.8019 194.528 -78.0893 216.962C-78.4918 217.343 -78.7653 217.86 -78.7653 218.534C-78.7681 218.793 -78.7794 219.051 -78.7848 219.3C-79.515 221.522 -80.5226 223.774 -81.9011 226.027C-83.2389 228.211 -80.8323 230.352 -78.9752 229.705C-79.8607 266.864 -83.4587 307.243 -78.441 345.195C-82.2253 335.485 -85.9236 325.788 -87.6015 315.419ZM-129.003 153.034C-129.857 152.212 -130.66 151.359 -131.54 150.549C-109.623 146.017 -93.9711 160.273 -79.7399 176.345C-75.3301 181.326 -64.5456 196.149 -57.0632 186.791C-54.0964 183.088 -51.8936 178.794 -50.1845 174.174C-52.7031 192.471 -57.1197 212.947 -71.0115 223.805L-73.4868 218.825C-65.9215 189.634 -102.511 163.463 -129.003 153.034ZM42.5631 84.6615C43.0844 83.7874 42.9817 82.9319 42.5957 82.2418C55.7315 62.6282 69.751 44.2824 93.3167 34.025C126.577 19.5578 165.56 31.2573 196.043 10.9425C188.39 25.0646 177.721 37.941 169.117 51.1688C168.838 51.3367 168.581 51.5423 168.359 51.8368C163.743 57.9945 159.42 64.1803 155.78 70.9784C151.571 78.8388 141.793 86.2492 135.227 92.1962C120.975 105.099 105.266 115.817 87.8805 123.958C73.0023 130.937 58.1813 137.128 45.5425 147.863C33.4043 158.171 24.0601 171.696 15.4666 184.949C13.7399 187.624 17.8612 190.34 19.6086 187.658C30.2316 171.258 42.01 155.163 58.4626 144.161C73.1173 134.355 90.4416 128.97 105.812 120.407C120.102 112.458 133.109 101.114 144.937 89.9554C149.444 85.6896 153.265 81.1383 156.831 76.44C153.469 88.2708 153.64 101.01 160.488 115.609C160.607 115.868 160.772 116.032 160.929 116.209C153.965 118.014 147.175 120.087 140.646 122.384C80.4016 143.581 32.0655 188.145 -0.941495 242.072C-6.93 251.861 -12.3175 261.866 -17.2372 272.062C-11.6437 246.391 -9.08172 220.067 -4.77791 194.152C-1.51955 174.467 4.78155 156.349 9.93906 137.236C15.3735 117.088 32.0726 102.114 42.5631 84.6615ZM209.172 284.058C201.712 280.459 193.912 279.351 188.552 287.705C182.055 297.82 183.442 313.673 172.473 320.326C172.742 303.201 166.921 287.451 152.633 276.41C135.912 263.499 112.428 261.865 92.2199 264.082C51.3193 268.548 11.1655 294.267 -2.30259 333.036C7.65372 284.127 40.3732 245.83 90.1673 231.041C106.001 226.339 126.82 226.49 146.652 231.304C151.989 233.141 157.274 235.095 162.522 237.113C166.701 238.724 170.847 240.346 174.945 242.041C192.299 251.507 205.698 265.557 209.172 284.058ZM170.377 330.443C170.606 331.405 170.847 332.365 171.05 333.328C160.169 323.858 149.902 313.628 134.288 313.954C132.668 313.994 131.423 315.227 131.701 316.9C132.713 323.246 136.231 338.593 127.491 341.471C121.416 343.473 113.144 339.096 107.702 336.819C92.6232 330.464 78.3836 321.999 62.1753 318.724C40.0145 314.249 14.9358 320.774 1.29858 337.654C12.38 300.741 48.5786 276.883 86.4143 269.924C105.986 266.326 127.774 267.476 145.333 277.501C163.773 288.033 169.424 308.068 166.985 328.122C166.727 330.244 168.823 331.058 170.377 330.443ZM98.9312 494.929C94.1978 482.763 81.8209 474.674 69.0123 473.39C61.932 470.527 54.2984 469.722 47.972 474.762C42.0311 479.488 39.2393 486.63 38.1388 494.037C37.3402 496.272 36.6783 498.552 36.2463 500.841C34.046 512.186 36.6123 525.609 44.3933 534.42C43.8658 534.884 43.649 535.633 43.6957 536.404C32.5916 534.32 21.4997 526.818 13.3388 520.622C2.24491 512.195 -8.9463 498.676 -8.78633 483.879C-8.61315 467.659 23.3118 471.205 33.5538 470.405C46.5615 469.369 55.3171 463.312 48.9294 449.768C46.7467 445.162 48.7685 445.353 53.1003 442.706C56.3947 440.693 59.9479 439.098 63.481 437.552C70.2363 434.568 77.2744 432.366 83.7479 428.76C95.9287 421.985 100.222 409.095 102.467 396.132C102.893 393.658 99.1581 392.563 97.9412 394.609C86.4679 413.974 69.5374 402.023 55.2564 393.018C53.5044 391.909 48.0215 390.016 48.8148 386.982C50.543 380.343 54.5116 374.694 59.1609 369.808C66.4875 362.141 77.2084 358.809 87.3334 357.087C88.7953 356.842 89.9342 354.917 89.0784 353.557C68.408 321.07 27.3801 326.861 0.561672 348.392C0.279571 348.608 0.0491784 348.874 -0.225822 349.096C7.65545 331.666 26.9811 323.141 46.5462 322.324C64.4345 321.585 80.7238 329.709 96.4623 337.104C105.817 341.501 118.988 349.443 129.774 345.888C139.921 342.545 138.422 328.082 137.026 318.99C152.456 320.207 162.332 332.987 173.96 342.161C175.544 343.421 178.4 341.633 177.73 339.621C176.173 334.818 175.449 329.924 173.927 325.13C181.171 321.314 184.535 314.01 187.086 306.315C188.567 301.864 189.719 297.329 191.437 292.965C195.327 283.071 203.525 286.17 210.949 290.639C212.89 291.82 214.909 290.204 214.722 288.092C213.516 274.218 207.545 262.745 198.656 253.49C202.888 255.953 207.004 258.631 210.98 261.642C246.159 288.39 267.638 333.736 237.976 372.781C236.588 374.615 238.563 376.816 240.514 376.56C245.714 375.882 250.339 374.45 255.166 372.456C264.334 368.67 269.964 368.085 276.13 377.554C283.595 389.008 264.744 406.04 258.483 414.099C257.143 415.822 259.039 418.299 261.032 417.879C294.434 410.898 327.588 395.228 341.755 362.245C353.164 335.681 347.488 305.118 336.679 279.187C338.069 279.635 339.571 279.856 341.38 279.551C345.304 278.897 347.523 274.742 349.042 271.541C351.814 265.721 352.276 258.376 353.26 252.093C353.775 248.796 354.423 245.568 355.538 242.426C355.04 243.839 366.233 247.357 367.609 247.079C370.851 246.445 369.367 246.235 372.08 249.472C374.836 252.755 377.792 255.844 380.939 258.751C384.791 262.288 389.157 264.955 394.119 266.54C406.936 270.666 421.125 262.131 431.568 255.84C432.818 255.094 433.587 253.151 432.309 251.982C389.672 212.635 357.849 161.283 307.926 130.099C267.094 104.589 212.258 103.785 165.014 115.233C165.207 114.689 165.228 114.068 164.914 113.403C154.811 91.8546 160.456 73.9877 170.681 57.0235C171.281 56.1948 171.868 55.375 172.493 54.5446C172.781 54.166 172.895 53.7728 172.942 53.3938C183.552 36.8836 197.786 21.0646 205.162 3.3427C206.12 1.00922 202.917 -0.934189 201.158 0.710201C169.37 30.457 121.083 14.9178 83.924 32.9041C50.1752 49.2319 36.5044 86.4249 14.2428 114.248C3.20302 94.888 2.19282 72.8858 4.7419 50.9616C4.98197 48.9049 2.11304 47.3536 0.636821 48.9537C-14.1773 65.016 -32.9609 78.0703 -41.951 98.5595C-51.5846 120.507 -48.3089 146.331 -54.6465 169.239C-55.9365 173.894 -57.5453 178.522 -60.0608 182.669C-63.6074 188.482 -70.4198 179.323 -72.3365 177.232C-78.492 170.523 -84.386 163.673 -91.3357 157.742C-105.01 146.054 -119.409 141.362 -136.98 146.863C-138.9 147.467 -139.349 149.306 -138.313 150.741C-139.846 151.75 -140.128 154.482 -137.866 155.166C-135.829 155.781 -133.622 156.561 -131.324 157.456C-113.522 175.044 -102.137 196.677 -94.5186 220.767C-87.3761 243.318 -92.0732 267.192 -93.3363 290.31C-94.5809 312.979 -88.9317 331.328 -80.9753 352.259C-71.2718 377.732 -62.8594 403.552 -57.0316 430.174C-56.3931 441.956 -54.3124 453.569 -50.7648 464.766C-51.4577 465.431 -51.7935 466.429 -51.235 467.528C-49.3028 471.4 -47.2788 475.386 -45.1781 479.416C-44.7534 480.369 -44.3602 481.348 -43.9075 482.281C-43.7275 482.673 -43.474 482.966 -43.1936 483.169C-25.5595 516.342 -1.58292 551.82 36.274 559.62C74.4131 567.487 114.574 535.015 98.9312 494.929Z" fill="#F3F7F9"/>
</svg>
