<svg width="573" height="561" viewBox="0 0 573 561" fill="none" xmlns="http://www.w3.org/2000/svg">
<path d="M153.639 545.169C129.035 530.005 112.655 503.121 99.3094 477.384C93.4222 464.231 90.1287 450.604 88.7388 436.746C89.0547 436.29 89.2199 435.702 89.0688 434.993C88.8207 433.777 88.5398 432.589 88.2902 431.38C87.3096 416.498 88.4272 401.392 90.8621 386.306C96.0722 354.156 106.149 320.678 119.279 290.892C147.142 227.67 190.223 173.143 251.784 140.126C305.749 111.181 383.783 101.015 439.323 130.811C491.629 158.867 524.085 213.252 566.439 253.18C557.189 258.691 546.55 264.369 535.691 261.86C528.503 260.198 522.656 254.419 517.635 248.504C517.754 248.255 517.849 247.972 517.88 247.636C518.348 240.845 508.788 232.121 504.981 227.521C497.123 218.016 488.891 208.416 479.824 200.038C448.26 170.901 408.455 148.022 366.213 139.413C363.129 138.788 361.516 143.467 364.638 144.102C403.197 151.959 437.008 171.508 467.388 195.985C476.672 203.479 484.659 211.857 492.595 220.735C496.673 225.301 500.637 229.973 504.508 234.721C505.598 236.077 507.84 238.356 509.727 240.751C509.474 240.787 509.229 240.853 508.987 240.971C505.098 242.908 498.529 239.16 494.672 237.856C493.279 237.398 492.132 238.204 491.549 239.424C488.632 245.462 488.217 252.654 487.155 259.185C486.361 264.015 485.404 269.786 482.055 273.626C479.832 276.16 477.06 275.235 474.287 273.686L474.243 273.6C444.887 209.182 375.752 153.076 302.35 157.802C171.145 166.256 96.9894 313.368 93.0304 430.896C92.9232 434.072 97.8608 434.418 97.9666 431.23C99.0376 399.232 105.463 364.934 116.878 331.902C117.36 328.613 117.959 325.337 118.798 322.089C119.353 319.913 120.574 318.536 122.052 317.783C123.496 314.115 125.027 310.478 126.607 306.856C127.858 303.197 129.21 299.554 130.658 295.941C131.24 294.497 132.119 293.439 133.145 292.676C168.078 221.468 228.183 164.17 310.131 162.46C375.391 161.102 437.777 210.944 466.906 269.535C466.825 269.627 466.752 269.662 466.686 269.762C466.767 269.818 466.841 269.871 466.924 269.919C466.924 269.919 466.914 269.922 466.905 269.924C466.858 269.914 466.823 269.946 466.776 269.936C467.725 271.703 468.458 273.586 469.018 275.516C469.297 275.616 469.6 275.689 469.875 275.811C473.213 283.199 476.056 290.699 478.259 298.245C485.002 321.264 485.247 346.687 473.423 368.123C459.94 392.601 433.217 404.992 407.037 411.426C415.806 401.05 426.362 388.913 420.555 375.348C417.318 367.786 412.717 365.138 407.484 364.873C424.896 354.646 436.878 338.375 440.109 316.231C444.8 284.067 428.54 251.264 408.191 227.577C385.425 201.082 352.643 183.789 318.309 178.449C283 172.948 251.225 184.585 223.604 205.979C221.086 207.929 224.389 211.6 226.897 209.661C253.082 189.381 281.338 179.515 314.653 182.945C346.951 186.275 377.19 202.999 399.811 225.797C421.049 247.199 435.794 276.879 435.783 307.382C435.775 338.463 415.077 360.08 386.695 368.414C409.802 330.363 390.467 288.864 358.148 261.109C345.545 250.288 331.014 243.256 315.918 237.098C309.19 233.697 301.964 230.932 294.518 228.804C290.607 227.359 286.652 225.999 282.676 224.74C272.334 223.383 261.968 222.513 251.523 222.339C251.329 222.642 251.217 222.975 251.199 223.302C245.297 223.464 239.65 224.022 234.434 224.967C193.25 232.407 162.315 260.633 145.054 296.226C145.419 297.523 145.375 299.019 144.709 300.666C139.043 314.786 134.732 329.007 133.523 344.017C133.52 344.051 133.53 344.081 133.533 344.119C133.354 346.85 133.318 349.577 133.156 352.306C133.233 352.293 133.31 352.309 133.395 352.281C132.978 353.586 132.633 354.935 132.329 356.313C105.076 386.458 101.451 439.576 121.167 473.492C122.754 476.23 127.195 474.053 125.594 471.296C108.428 441.779 110.115 399.96 128.353 370.391C128.535 369.52 128.877 368.689 129.434 367.949C130.73 366.225 132.082 364.543 133.477 362.887C133.517 362.833 133.555 362.767 133.603 362.717C133.61 362.721 133.613 362.714 133.613 362.714C133.818 362.479 133.99 362.224 134.198 361.998C134.989 360.642 135.7 359.219 136.63 357.967C137.652 356.613 138.994 355.591 140.498 355.052C162.854 333.476 202.445 325.869 222.591 352.983C203.175 357.325 188.379 369.036 183.157 389.176C182.88 390.219 183.142 391.44 184.143 392.026C195.227 398.555 208.244 408.343 220.214 409.68C201.522 414.786 181.7 410.083 162.833 414.551C143.743 419.065 136.875 436.983 134.223 454.557C133.739 457.725 138.682 458.013 139.152 454.898C141.007 442.653 144.305 430.396 155.09 423.092C162.72 417.933 173.135 417.579 181.977 417.362C197.078 416.998 211.836 418.029 226.325 412.891C226.441 412.853 226.479 412.772 226.587 412.721C228.597 412.397 230.571 411.833 232.543 411.374C228.658 418.868 222.649 424.358 213.182 428.361C202.273 432.967 191.829 437.029 182.223 444.132C181.403 444.731 181.111 446.222 181.653 447.076C184.757 452.015 190.056 460.164 182.615 463.618C176.826 466.306 169.105 465.821 162.901 466.041C151.735 466.456 136.414 465.783 128.834 475.654C119.553 487.706 133.708 509.072 141.973 517.283C154.453 529.681 177.175 545.832 196.295 541.223C201.231 541.93 206.411 540.817 211.287 538.697C214.278 537.582 217.404 535.889 220.624 533.394C220.652 533.374 220.648 533.338 220.685 533.316C230.256 528.205 233.679 518.569 233.539 508.197C233.267 488.532 213.774 473.036 196.081 486.01C188.486 491.587 183.07 499.848 183.621 509.523C184.073 517.663 191.797 526.635 200.101 527.531C211.682 528.775 230.202 510.169 215.434 502.05C212.662 500.527 209.916 504.642 212.719 506.183C218.557 509.39 213.947 516.24 210.608 519.436C204.502 525.261 196.995 522.309 191.875 516.975C179.74 504.329 198.252 486.539 211.025 485.929C227.312 485.155 230.585 508.309 226.91 519.439C223.538 529.676 210.894 533.953 199.334 534.719C195.066 533.333 191.109 530.739 188.066 526.864C182.917 520.324 181.001 511.994 182.444 504.162C182.311 501.129 182.424 497.929 182.907 494.777C186.522 484.942 194.759 478.301 205.714 477.983C206.289 477.958 206.837 478.009 207.407 478.026C208.447 478.463 209.398 479.045 210.4 479.554C214.923 479.824 219.241 481.195 222.649 483.646C222.728 483.451 222.905 483.293 222.925 483.081C232.651 489.957 237.861 502.763 237.262 515.1C235.161 557.953 182.802 563.129 153.639 545.169ZM66.0029 228.813C66.6254 229.811 68.1305 230.481 69.1875 229.77C86.1887 218.382 90.6239 196.482 93.9658 177.615C96.0176 166.048 97.1032 153.973 98.595 141.97C97.7778 126.12 97.9032 108.083 106.308 95.7496C105.786 95.8461 105.29 96.0353 104.909 96.4706C107.696 91.0298 111.215 85.8642 115.576 80.9086C122.896 72.5967 131.316 65.337 139.144 57.5197C137.396 79.2321 139.586 100.914 151.661 119.739C151.741 119.882 151.862 119.941 151.976 120.059C151.233 121.419 150.485 122.776 149.817 124.187C141.482 142.063 136.437 162.253 132.539 181.543C124.812 219.669 123.339 258.952 111.221 296.149C110.978 296.899 111.092 297.553 111.396 298.074C107.34 308.329 103.642 318.738 100.274 329.341C92.7271 353.071 86.3972 377.358 83.8989 402.131C56.3282 350.71 64.6942 285.798 66.0029 228.813ZM52.3985 315.419C50.2763 302.47 51.5471 288.999 52.6012 276.007C54.4751 253.071 55.3115 232.74 47.364 210.775C40.8401 192.745 31.9914 176.646 19.9605 162.547C42.264 173.937 67.1981 194.528 61.9107 216.962C61.5082 217.343 61.2347 217.86 61.2347 218.534C61.2319 218.793 61.2206 219.051 61.2152 219.3C60.485 221.522 59.4774 223.774 58.0989 226.027C56.7611 228.211 59.1677 230.352 61.0248 229.705C60.1393 266.864 56.5413 307.243 61.559 345.195C57.7747 335.485 54.0764 325.788 52.3985 315.419ZM10.9968 153.034C10.1429 152.212 9.34014 151.359 8.45975 150.549C30.3771 146.017 46.0289 160.273 60.2601 176.345C64.6699 181.326 75.4544 196.149 82.9368 186.791C85.9036 183.088 88.1064 178.794 89.8155 174.174C87.2969 192.471 82.8803 212.947 68.9885 223.805L66.5133 218.825C74.0785 189.634 37.4893 163.463 10.9968 153.034ZM182.563 84.6615C183.084 83.7874 182.982 82.9319 182.596 82.2418C195.732 62.6282 209.751 44.2824 233.317 34.025C266.577 19.5578 305.56 31.2573 336.043 10.9425C328.39 25.0646 317.721 37.941 309.117 51.1688C308.838 51.3367 308.581 51.5423 308.359 51.8368C303.743 57.9945 299.42 64.1803 295.78 70.9784C291.571 78.8388 281.793 86.2492 275.227 92.1962C260.975 105.099 245.266 115.817 227.88 123.958C213.002 130.937 198.181 137.128 185.542 147.863C173.404 158.171 164.06 171.696 155.467 184.949C153.74 187.624 157.861 190.34 159.609 187.658C170.232 171.258 182.01 155.163 198.463 144.161C213.117 134.355 230.442 128.971 245.812 120.407C260.102 112.458 273.109 101.114 284.937 89.9554C289.444 85.6896 293.265 81.1383 296.831 76.44C293.469 88.2708 293.64 101.01 300.488 115.609C300.607 115.868 300.772 116.032 300.929 116.209C293.965 118.014 287.175 120.087 280.646 122.384C220.402 143.581 172.065 188.145 139.059 242.072C133.07 251.861 127.683 261.866 122.763 272.062C128.356 246.391 130.918 220.067 135.222 194.152C138.48 174.467 144.782 156.349 149.939 137.236C155.373 117.088 172.073 102.114 182.563 84.6615ZM349.171 284.058C341.712 280.459 333.912 279.351 328.552 287.705C322.055 297.82 323.442 313.673 312.473 320.326C312.742 303.201 306.921 287.451 292.633 276.41C275.912 263.499 252.428 261.865 232.22 264.083C191.319 268.548 151.166 294.267 137.697 333.036C147.654 284.127 180.373 245.83 230.167 231.041C246.001 226.339 266.82 226.49 286.652 231.304C291.989 233.141 297.274 235.095 302.522 237.113C306.701 238.724 310.847 240.346 314.945 242.041C332.299 251.507 345.698 265.557 349.171 284.058ZM310.377 330.443C310.606 331.405 310.847 332.365 311.05 333.328C300.169 323.858 289.902 313.628 274.288 313.953C272.668 313.994 271.423 315.227 271.701 316.9C272.713 323.246 276.231 338.593 267.491 341.471C261.416 343.473 253.144 339.096 247.702 336.819C232.623 330.464 218.384 321.999 202.175 318.724C180.015 314.249 154.936 320.774 141.299 337.654C152.38 300.741 188.579 276.883 226.414 269.924C245.986 266.326 267.774 267.476 285.333 277.501C303.773 288.033 309.424 308.068 306.985 328.123C306.727 330.244 308.823 331.058 310.377 330.443ZM238.931 494.929C234.198 482.763 221.821 474.674 209.012 473.39C201.932 470.527 194.298 469.722 187.972 474.762C182.031 479.488 179.239 486.63 178.139 494.037C177.34 496.272 176.678 498.552 176.246 500.841C174.046 512.186 176.612 525.609 184.393 534.42C183.866 534.884 183.649 535.633 183.696 536.404C172.592 534.32 161.5 526.818 153.339 520.622C142.245 512.195 131.054 498.676 131.214 483.879C131.387 467.659 163.312 471.205 173.554 470.405C186.561 469.369 195.317 463.312 188.929 449.768C186.747 445.162 188.769 445.353 193.1 442.706C196.395 440.693 199.948 439.098 203.481 437.552C210.236 434.568 217.274 432.366 223.748 428.76C235.929 421.985 240.222 409.095 242.467 396.132C242.893 393.658 239.158 392.563 237.941 394.609C226.468 413.974 209.537 402.023 195.256 393.018C193.504 391.909 188.022 390.016 188.815 386.982C190.543 380.343 194.512 374.694 199.161 369.808C206.488 362.141 217.208 358.809 227.333 357.087C228.795 356.842 229.934 354.917 229.078 353.557C208.408 321.07 167.38 326.861 140.562 348.392C140.28 348.608 140.049 348.874 139.774 349.096C147.655 331.666 166.981 323.141 186.546 322.324C204.435 321.585 220.724 329.709 236.462 337.104C245.817 341.501 258.988 349.443 269.774 345.888C279.921 342.545 278.422 328.082 277.026 318.99C292.456 320.207 302.332 332.987 313.96 342.161C315.544 343.421 318.4 341.633 317.73 339.621C316.173 334.818 315.449 329.924 313.927 325.13C321.171 321.314 324.535 314.01 327.086 306.315C328.567 301.864 329.719 297.329 331.437 292.965C335.327 283.071 343.525 286.17 350.949 290.639C352.89 291.82 354.909 290.204 354.722 288.092C353.516 274.218 347.545 262.745 338.656 253.49C342.888 255.953 347.004 258.631 350.98 261.642C386.159 288.39 407.638 333.736 377.976 372.781C376.588 374.615 378.563 376.816 380.514 376.56C385.714 375.882 390.339 374.45 395.166 372.456C404.334 368.67 409.964 368.085 416.13 377.554C423.595 389.008 404.744 406.04 398.483 414.099C397.143 415.822 399.039 418.299 401.032 417.879C434.434 410.898 467.588 395.228 481.755 362.245C493.164 335.681 487.488 305.118 476.679 279.187C478.069 279.635 479.571 279.856 481.38 279.551C485.304 278.897 487.523 274.742 489.042 271.541C491.814 265.721 492.276 258.376 493.26 252.093C493.775 248.796 494.423 245.568 495.538 242.426C495.04 243.839 506.233 247.357 507.609 247.079C510.851 246.445 509.367 246.235 512.08 249.472C514.836 252.755 517.792 255.844 520.939 258.751C524.791 262.288 529.157 264.955 534.119 266.54C546.936 270.666 561.125 262.131 571.568 255.84C572.819 255.094 573.587 253.151 572.309 251.982C529.672 212.635 497.849 161.283 447.926 130.099C407.094 104.589 352.258 103.785 305.014 115.233C305.207 114.689 305.228 114.068 304.914 113.403C294.811 91.8546 300.456 73.9877 310.681 57.0235C311.281 56.1948 311.868 55.375 312.493 54.5446C312.781 54.166 312.895 53.7728 312.942 53.3938C323.552 36.8836 337.786 21.0646 345.162 3.3427C346.12 1.00922 342.917 -0.9342 341.158 0.710196C309.37 30.457 261.083 14.9178 223.924 32.9041C190.175 49.2319 176.504 86.4249 154.243 114.248C143.203 94.888 142.193 72.8858 144.742 50.9616C144.982 48.9049 142.113 47.3536 140.637 48.9537C125.823 65.016 107.039 78.0703 98.0489 98.5595C88.4154 120.507 91.6911 146.331 85.3535 169.239C84.0635 173.894 82.4547 178.522 79.9392 182.669C76.3926 188.482 69.5802 179.323 67.6635 177.232C61.508 170.523 55.614 163.673 48.6644 157.742C34.9904 146.054 20.5913 141.362 3.01974 146.863C1.09999 147.467 0.651189 149.306 1.68669 150.741C0.154015 151.75 -0.127924 154.482 2.13421 155.166C4.17115 155.781 6.37821 156.561 8.67581 157.456C26.478 175.044 37.8627 196.677 45.4814 220.767C52.6239 243.318 47.9268 267.192 46.6637 290.31C45.4191 312.979 51.0683 331.328 59.0247 352.259C68.7282 377.732 77.1406 403.552 82.9684 430.174C83.6069 441.956 85.6876 453.569 89.2352 464.766C88.5423 465.431 88.2065 466.429 88.765 467.528C90.6972 471.4 92.7212 475.386 94.8219 479.416C95.2466 480.369 95.6398 481.348 96.0925 482.281C96.2725 482.673 96.526 482.966 96.8064 483.169C114.441 516.342 138.417 551.82 176.274 559.62C214.413 567.487 254.574 535.015 238.931 494.929Z" fill="#EFDCF5"/>
</svg>
