<svg width="60" height="60" viewBox="0 0 60 60" fill="none" xmlns="http://www.w3.org/2000/svg">
<g clip-path="url(#clip0_19_11)">
<path d="M53.6376 45.1947L32.2819 29.1779V26.9182C36.3792 25.7014 39.2349 21.5296 38.3161 16.8611C37.6705 13.6081 35.0879 10.9014 31.8349 10.1564C26.1731 8.86517 21.1074 13.1611 21.1074 18.6242H26.0738C26.0738 16.5632 27.7376 14.8994 29.7986 14.8994C31.8597 14.8994 33.5235 16.5632 33.5235 18.6242C33.5235 20.7101 31.8101 22.3987 29.7242 22.3491C28.3832 22.3242 27.3154 23.4665 27.3154 24.8075V29.1779L5.95972 45.1947C4.04764 46.635 5.06576 49.6645 7.44965 49.6645H29.7986H52.1476C54.5315 49.6645 55.5497 46.635 53.6376 45.1947ZM14.8993 44.6981L29.7986 33.5236L44.698 44.6981H14.8993Z" fill="white"/>
</g>
<defs>
<clipPath id="clip0_19_11">
<rect width="59.5973" height="59.5973" fill="white"/>
</clipPath>
</defs>
</svg>
