<svg width="214" height="53" viewBox="0 0 214 53" fill="none" xmlns="http://www.w3.org/2000/svg">
<path fill-rule="evenodd" clip-rule="evenodd" d="M24.6005 50.3604C12.2034 50.3604 2.13801 40.366 2.13801 28.0558C2.13801 15.7463 12.2034 5.75195 24.6005 5.75195C36.9982 5.75195 47.0636 15.7463 47.0636 28.0558" fill="#484F8C"/>
<path fill-rule="evenodd" clip-rule="evenodd" d="M27.2493 33.6666C27.5168 33.6698 27.7647 33.6588 27.9589 33.625C28.641 33.5075 29.1394 33.2029 29.4553 32.8827C29.7771 32.5561 30.0897 32.0177 30.1872 31.2846C30.3212 30.2845 29.987 28.4947 29.987 28.4941C29.4442 25.7795 30.2297 22.8533 32.3468 20.7505C35.7156 17.4054 41.1866 17.4054 44.5554 20.7505C46.2023 22.3864 47.0545 24.5197 47.08 26.6653C47.0813 26.7504 47.0806 34.9901 47.0806 42.2452C47.0806 44.1577 48.233 46.7762 49.9688 48.5289C50.2899 48.8426 50.3874 49.3179 50.2167 49.7316C50.046 50.1453 49.6405 50.4148 49.1905 50.4148C38.229 50.42 23.2238 50.42 23.1571 50.4193C20.9962 50.394 18.8477 49.5478 17.2008 47.912C13.832 44.5669 13.832 39.1352 17.2008 35.7901C19.3277 33.6783 22.2918 32.9009 25.0367 33.4549L27.2493 33.6666Z" fill="#D03200"/>
<path d="M58.2356 40.8276C56.2099 40.8276 55.1971 40.5403 55.1971 39.9656C55.1971 39.4915 55.4629 39.1036 55.9944 38.8019C56.957 38.256 57.5173 37.7675 57.6753 37.3365C57.8333 36.8912 57.9124 34.8152 57.9124 31.1086C57.9124 27.3877 57.7974 25.2112 57.5676 24.5791C57.3521 23.9326 56.9498 23.401 56.3608 22.9844C55.7717 22.5677 55.4772 22.2301 55.4772 21.9715C55.4772 21.7129 55.6712 21.4687 56.0591 21.2388C56.9642 20.7073 58.4008 20.4415 60.369 20.4415C60.9581 20.4415 61.4178 20.6426 61.7482 21.0449C61.8632 21.1886 62.0212 21.5046 62.2223 21.9931C62.4378 22.4672 62.5815 22.7042 62.6533 22.7042C62.9263 22.6899 63.3501 22.4959 63.9248 22.1224C65.9073 20.7863 67.7031 20.1183 69.3122 20.1183H69.3553H70.0449C71.2086 20.1183 72.2573 20.4056 73.1912 20.9802C74.125 21.5549 74.8433 22.4169 75.3461 23.5662C75.8633 24.7155 76.1219 27.2225 76.1219 31.0871C76.1219 34.9373 76.2009 37.0923 76.359 37.552C76.5314 37.9974 76.9983 38.414 77.7597 38.8019C78.5355 39.1898 78.9234 39.5705 78.9234 39.9441C78.9234 40.5906 76.8834 40.9138 72.8033 40.9138H72.1568C70.8638 40.9138 70.2173 40.6049 70.2173 39.9872C70.2173 39.8579 70.3753 39.549 70.6914 39.0605C71.0074 38.5577 71.2229 38.0046 71.3379 37.4012C71.4528 36.7978 71.5103 34.8152 71.5103 31.4534C71.5103 28.0773 71.302 25.908 70.8853 24.9454C70.3107 23.6237 69.3553 22.9628 68.0192 22.9628C67.0423 22.9628 66.0941 23.1927 65.1746 23.6524C64.2695 24.0978 63.6087 24.7371 63.1921 25.5704C62.7898 26.3892 62.5887 28.3646 62.5887 31.4965C62.5887 34.6141 62.6749 36.5033 62.8473 37.1641C63.0197 37.8106 63.228 38.335 63.4722 38.7373L64.2695 40.0303C64.2695 40.5906 63.1418 40.8707 60.8862 40.8707L59.5717 40.8276H58.2356ZM89.7759 41.2801H89.2802C88.605 41.2801 87.937 40.6552 87.2761 39.4053C86.9457 38.7732 85.9328 36.295 84.2376 31.9706C82.5423 27.6463 81.5079 25.1537 81.1344 24.4929C80.7609 23.8176 80.179 23.2214 79.3889 22.7042C78.5987 22.1727 78.2036 21.7704 78.2036 21.4974C78.2036 21.0521 78.5197 20.7647 79.1518 20.6354C79.784 20.5062 81.2278 20.4415 83.4833 20.4415C85.7389 20.4415 86.8667 20.7647 86.8667 21.4112C86.8667 21.4543 86.7876 21.6914 86.6296 22.1224C86.4716 22.539 86.3926 22.9987 86.3926 23.5016C86.3926 25.4698 87.5131 29.0471 89.7543 34.2334C90.171 35.1816 90.4655 35.6557 90.6379 35.6557C90.8103 35.6557 91.0904 35.2247 91.4783 34.3627C93.7913 29.2482 94.9478 25.6996 94.9478 23.7171C94.9478 23.2286 94.7611 22.7114 94.3875 22.1655C94.014 21.6196 93.8272 21.3394 93.8272 21.325C93.8272 20.7073 95.1633 20.3984 97.8355 20.3984H98.3527C100.105 20.3984 100.982 20.7001 100.982 21.3035C100.982 21.8207 100.601 22.3307 99.8396 22.8335C99.0782 23.322 98.4964 23.9326 98.0941 24.6653C97.9073 24.9957 96.952 27.3015 95.228 31.5827C93.504 35.8496 92.3403 38.5361 91.7369 39.6424C91.1335 40.7342 90.4798 41.2801 89.7759 41.2801ZM109.184 13.3301C109.184 13.9622 108.911 14.5512 108.365 15.0972C107.833 15.6287 107.302 15.8945 106.77 15.8945C106.655 15.9232 106.562 15.9376 106.49 15.9376L106.016 15.9807C105.297 15.9807 104.651 15.7436 104.076 15.2696C103.516 14.7955 103.236 14.1849 103.236 13.4378V13.0499C103.236 12.3029 103.53 11.6779 104.119 11.1751C104.723 10.6579 105.412 10.3993 106.188 10.3993H106.296L107.029 10.4855C107.474 10.4855 107.934 10.7297 108.408 11.2182C108.896 11.6923 109.141 12.1736 109.141 12.662L109.184 12.856V13.3301ZM102.331 22.9413C101.584 22.5821 101.21 22.2445 101.21 21.9284C101.21 21.6124 101.361 21.361 101.663 21.1742C102.711 20.5421 104.371 20.226 106.641 20.226H107.266C108.041 20.226 108.48 20.5852 108.58 21.3035C108.638 21.6914 108.666 24.3061 108.666 29.1476C108.666 33.9748 108.767 36.7475 108.968 37.4658C109.169 38.1698 109.651 38.7157 110.412 39.1036C111.173 39.4771 111.554 39.8579 111.554 40.2458C111.554 40.7917 109.773 41.0646 106.21 41.0646L105.563 41.0862H102.934C101.885 41.0862 101.361 40.8276 101.361 40.3104C101.361 39.8794 101.677 39.4628 102.309 39.0605C102.956 38.6583 103.401 38.2129 103.645 37.7244C103.918 37.1929 104.055 35.9502 104.055 33.9963L104.076 33.3067V32.6387L104.098 31.6258V30.9578L104.119 30.2898C104.119 26.8849 104.004 24.9023 103.775 24.342C103.559 23.7674 103.078 23.3004 102.331 22.9413ZM122.126 38.1554L125.402 37.6598C125.776 37.6598 125.962 37.9543 125.962 38.5433C125.962 39.118 125.409 39.7142 124.303 40.332C123.197 40.9497 122.033 41.2586 120.812 41.2586H120.381C119.418 41.2586 118.549 41.0072 117.773 40.5044C116.998 40.0015 116.43 39.3838 116.071 38.6511C115.453 37.3725 115.144 34.9517 115.144 31.3888C115.144 27.8115 115.015 25.5775 114.756 24.6868C114.512 23.7961 114.189 23.1855 113.787 22.8551C113.04 22.2517 112.666 21.9213 112.666 21.8638C112.666 21.4903 112.86 21.1742 113.248 20.9156C114.239 20.2547 114.778 19.8812 114.864 19.795C114.965 19.6944 115.518 18.5164 116.523 16.2608C117.026 15.1403 117.594 14.58 118.226 14.58C118.872 14.58 119.303 14.8098 119.519 15.2696C119.576 15.3845 119.698 16.0094 119.885 17.1444C120.086 18.2793 120.367 19.012 120.726 19.3425C121.085 19.6585 121.882 19.9674 123.118 20.2691C124.353 20.5564 124.971 20.9731 124.971 21.519C124.971 22.0649 124.289 22.4744 122.924 22.7473C121.559 23.0203 120.733 23.3723 120.446 23.8033C119.943 24.536 119.691 26.6047 119.691 30.0096C119.691 33.4145 119.849 35.5623 120.165 36.453C120.568 37.588 121.221 38.1554 122.126 38.1554ZM140.457 26.9926V26.3246C140.457 25.2615 140.076 24.3061 139.315 23.4585C138.553 22.5965 137.619 22.1655 136.513 22.1655H136.104C135.902 22.1942 135.766 22.2086 135.694 22.2086C134.689 22.2086 133.733 22.7832 132.828 23.9326C131.937 25.0819 131.492 26.3102 131.492 27.6176V27.8977C131.492 28.3575 131.765 28.5873 132.311 28.5873C132.526 28.6304 132.641 28.652 132.656 28.652L133.151 28.6735H133.281L133.431 28.652L137.591 28.4149L138.366 28.3287C139.76 28.3287 140.457 27.8834 140.457 26.9926ZM131.492 32.7033C131.492 34.3411 132.11 35.7131 133.345 36.8193C134.581 37.9256 136.147 38.4787 138.043 38.4787C138.805 38.4787 139.494 38.3709 140.112 38.1554C140.744 37.9256 141.426 37.6526 142.159 37.3365C142.906 37.0205 143.373 36.8624 143.56 36.8624C144.135 36.8624 144.422 37.1713 144.422 37.7891C144.422 38.6223 143.359 39.5131 141.232 40.4613C139.853 41.079 138.374 41.3879 136.793 41.3879H136.319C133.618 41.3879 131.377 40.569 129.596 38.9312C128.633 38.0405 127.886 36.9055 127.354 35.5264C126.823 34.1328 126.557 32.6387 126.557 31.044L126.579 30.5484V30.0527C126.579 28.6735 126.895 27.3159 127.527 25.9798C128.173 24.6437 128.942 23.5447 129.833 22.6827C131.715 20.8725 133.949 19.9602 136.535 19.9459C140.442 19.9459 143.043 21.4687 144.336 24.5144C144.738 25.477 144.939 26.3605 144.939 27.165V27.596C144.939 28.5873 144.53 29.2554 143.711 29.6002C142.892 29.9306 140.96 30.2036 137.914 30.4191C134.868 30.6346 133.216 30.7782 132.957 30.85C131.98 31.0943 131.492 31.712 131.492 32.7033ZM150.167 41.5172C149.42 41.5172 148.738 41.2514 148.12 40.7199C147.502 40.1883 147.193 39.4915 147.193 38.6295V38.4356C147.193 37.6023 147.509 36.9127 148.141 36.3668C148.788 35.8209 149.441 35.5479 150.102 35.5479H150.49C150.706 35.591 150.864 35.6126 150.964 35.6126C151.467 35.6126 151.992 35.8855 152.537 36.4314C153.083 36.9774 153.356 37.6095 153.356 38.3278V38.6295C153.356 39.2904 153.091 39.9297 152.559 40.5475C152.042 41.1508 151.446 41.4525 150.77 41.4525L150.275 41.5172H150.167Z" fill="#D03200"/>
<path d="M171.04 36.9702C171.155 36.4099 171.213 34.492 171.213 31.2164C171.213 27.9408 170.961 25.8002 170.458 24.7946C169.955 23.7889 169.022 23.2861 167.657 23.2861C166.838 23.2861 165.99 23.6093 165.114 24.2558C164.238 24.8879 163.656 25.5919 163.368 26.3677C163.081 27.1435 162.937 28.9537 162.937 31.7982C162.937 34.6284 162.959 36.374 163.002 37.0348C163.06 37.6957 163.167 38.2129 163.325 38.5864L163.605 39.1252C163.835 39.5705 163.95 39.8938 163.95 40.0949C163.95 40.6265 162.851 40.8923 160.653 40.8923C158.455 40.8923 157.026 40.6696 156.365 40.2242L155.977 39.8148C155.977 39.4125 156.12 39.0677 156.408 38.7804C157.27 37.904 157.78 37.236 157.938 36.7762C158.096 36.3165 158.175 34.2836 158.175 30.6777C158.175 27.0573 157.866 24.694 157.248 23.5878L156.796 23.0059C156.422 22.5318 156.235 22.1727 156.235 21.9284C156.235 21.6698 156.501 21.3753 157.033 21.0449C157.579 20.7001 158.419 20.5277 159.554 20.5277C160.703 20.5277 161.565 20.8366 162.14 21.4543C162.715 22.0577 163.124 22.3594 163.368 22.3594L164.015 22.0577L165.653 21.088C166.989 20.384 168.346 20.0321 169.726 20.0321C171.105 20.0321 172.419 20.4559 173.669 21.3035C174.919 22.1368 175.702 22.5534 176.018 22.5534L176.751 22.2086L177.548 21.7345C178.223 21.3322 178.949 20.9731 179.725 20.657C180.472 20.3409 181.463 20.1829 182.699 20.1829C185.055 20.1829 186.721 21.1598 187.698 23.1137C188.416 24.5503 188.776 27.9121 188.776 33.199C188.776 35.4689 188.847 36.7906 188.991 37.1641C189.135 37.5233 189.523 37.9615 190.155 38.4787C190.787 38.9959 191.103 39.2976 191.103 39.3838V39.901L190.694 40.2889C190.004 40.7055 188.251 40.9138 185.435 40.9138C184.085 40.9138 183.41 40.5834 183.41 39.9225C183.41 39.8507 183.503 39.5274 183.69 38.9528C183.891 38.3781 184.006 37.9184 184.035 37.5736C184.078 37.2144 184.099 35.3827 184.099 32.0784C184.099 28.7741 183.934 26.7053 183.604 25.872C183.288 25.0244 182.885 24.3779 182.397 23.9326C181.923 23.4728 181.197 23.243 180.22 23.243C179.243 23.243 178.417 23.5088 177.742 24.0403C177.067 24.5719 176.593 25.1681 176.32 25.8289C176.047 26.4754 175.91 28.4437 175.91 31.7336C175.91 35.0235 176.011 36.9271 176.212 37.4443C176.413 37.9471 176.787 38.4428 177.333 38.9312C177.893 39.4197 178.173 39.7429 178.173 39.901C178.173 40.6193 176.916 40.9785 174.402 40.9785H171.385C169.876 40.9785 169.122 40.763 169.122 40.332C169.122 39.8866 169.309 39.4628 169.682 39.0605C170.487 38.2129 170.94 37.5161 171.04 36.9702ZM206.028 26.9926V26.3246C206.028 25.2615 205.648 24.3061 204.886 23.4585C204.125 22.5965 203.191 22.1655 202.085 22.1655H201.675C201.474 22.1942 201.338 22.2086 201.266 22.2086C200.26 22.2086 199.305 22.7832 198.4 23.9326C197.509 25.0819 197.064 26.3102 197.064 27.6176V27.8977C197.064 28.3575 197.337 28.5873 197.883 28.5873C198.098 28.6304 198.213 28.652 198.227 28.652L198.723 28.6735H198.852L199.003 28.652L203.162 28.4149L203.938 28.3287C205.332 28.3287 206.028 27.8834 206.028 26.9926ZM197.064 32.7033C197.064 34.3411 197.681 35.7131 198.917 36.8193C200.152 37.9256 201.718 38.4787 203.615 38.4787C204.376 38.4787 205.066 38.3709 205.684 38.1554C206.316 37.9256 206.998 37.6526 207.731 37.3365C208.478 37.0205 208.945 36.8624 209.132 36.8624C209.706 36.8624 209.994 37.1713 209.994 37.7891C209.994 38.6223 208.93 39.5131 206.804 40.4613C205.425 41.079 203.945 41.3879 202.365 41.3879H201.891C199.19 41.3879 196.949 40.569 195.167 38.9312C194.205 38.0405 193.458 36.9055 192.926 35.5264C192.395 34.1328 192.129 32.6387 192.129 31.044L192.15 30.5484V30.0527C192.15 28.6735 192.466 27.3159 193.099 25.9798C193.745 24.6437 194.514 23.5447 195.404 22.6827C197.286 20.8725 199.52 19.9602 202.106 19.9459C206.014 19.9459 208.614 21.4687 209.907 24.5144C210.31 25.477 210.511 26.3605 210.511 27.165V27.596C210.511 28.5873 210.101 29.2554 209.282 29.6002C208.464 29.9306 206.531 30.2036 203.486 30.4191C200.44 30.6346 198.788 30.7782 198.529 30.85C197.552 31.0943 197.064 31.712 197.064 32.7033Z" fill="#484F8C"/>
</svg>
